<svg width="12" height="12" viewBox="0 0 12 12" fill="none" xmlns="http://www.w3.org/2000/svg"><g clip-path="url(#clip0)"><path fill-rule="evenodd" clip-rule="evenodd" d="M11.988 3.528c-.028-.638-.131-1.076-.279-1.456a2.93 2.93 0 00-.694-1.064A2.954 2.954 0 009.953.316C9.571.17 9.135.066 8.498.038 7.855.008 7.65 0 6.022 0S4.19.007 3.55.035c-.638.028-1.076.131-1.456.28a2.928 2.928 0 00-1.064.693c-.305.3-.541.663-.691 1.062-.148.382-.251.818-.28 1.456C.029 4.168.022 4.372.022 6c0 1.63.007 1.833.035 2.473.028.638.132 1.076.28 1.456.152.403.388.764.693 1.064.3.305.663.542 1.062.692.382.148.818.25 1.456.279.64.028.844.035 2.473.035 1.63 0 1.833-.007 2.473-.035.638-.028 1.076-.131 1.456-.28a3.07 3.07 0 001.756-1.755c.147-.382.25-.818.278-1.456.029-.64.036-.844.036-2.473 0-1.63-.003-1.833-.03-2.473zm-5.966-.61a3.083 3.083 0 10.002 6.167 3.083 3.083 0 00-.002-6.166zm0 5.083a2 2 0 110-4 2 2 0 010 4zm3.205-4.485a.72.72 0 100-1.44.72.72 0 000 1.44z" fill="#fff"/></g><defs><clipPath id="clip0"><path fill="#fff" d="M0 0h12v12H0z"/></clipPath></defs></svg>