<svg width="167" height="115" viewBox="0 0 167 115" fill="none" xmlns="http://www.w3.org/2000/svg"><path d="M.046 108.065c-.136-.679.045-1.086.362-1.086.498 0 .498.407.679 1.132.407 1.584 2.49 5.206 7.289 5.206 3.305 0 6.564-1.856 6.564-5.523 0-6.701-14.125-2.943-14.125-12.043 0-4.437 3.713-6.564 7.742-6.564 4.21 0 5.342 1.267 5.84 1.267.317 0 .362-.362.724-.362.227 0 .362.09.408.498l.543 4.754c.045.271-.045.543-.362.543-.362 0-.634-.724-.725-1.041-1.04-2.988-3.576-4.528-6.655-4.528-2.761 0-5.659 1.313-5.659 4.528 0 6.564 14.125 2.716 14.125 12.314 0 2.943-2.037 7.289-9.96 7.289-2.58 0-5.75-1.268-5.885-1.902l-.905-4.482zm26.892-14.94c0-.226.135-1.584-.363-1.584h-5.659c-2.173 0-2.218.543-2.852 2.445-.09.362-.136.814-.588.814-.227 0-.363-.226-.363-.407l.363-3.395c.045-.408 0-1.359.633-1.359 2.717 0 5.388.136 9.87.136 6.293 0 9.507-.136 10.186-.136.815 0 .996.227.996.996l.181 2.807c.045.363.09.77-.362.77-1.268 0 .589-2.626-2.943-2.626h-4.98c-1.584 0-1.403-.136-1.403 1.72v17.747c0 2.943 2.807 1.766 2.807 2.852 0 .091.045.408-.317.408-.815 0-1.811-.136-2.807-.136-3.893 0-4.573.136-4.754.136-.317 0-.407-.091-.407-.453 0-.815 2.762-.498 2.762-2.58V93.125zm24.809-.045c0-2.626-3.079-2.309-3.079-2.988 0-.543.544-.498.951-.498.679 0 1.403.136 2.807.136 1.403 0 2.807-.136 5.568-.136 6.112 0 7.651 3.35 7.651 5.93 0 3.532-3.26 4.709-3.26 4.936 0 .543 5.479.633 5.479 6.428 0 2.309-1.675 7.38-8.466 7.38-1.268 0-3.35-.136-4.527-.136-1.585 0-3.26.136-4.845.136-.18 0-.86-.091-.86-.363 0-.362.408-.452 1.042-.679.362-.09 1.584-.271 1.584-2.988V93.08h-.045zm2.716 16.977c0 2.49-.181 3.26 4.754 3.26 4.617 0 5.885-3.079 5.885-5.161 0-2.218-.136-6.7-8.149-6.7-2.671 0-2.49.498-2.49.814v7.787zm0-10.956c0 1.132-.407 1.268 2.716 1.268 5.705 0 5.976-2.128 5.976-3.758 0-3.757-3.169-5.885-6.7-5.885-2.173 0-2.037.588-2.037 2.626v5.75h.045zm29.699 6.837c-.362-.815-.543-1.313-1.54-1.313h-7.65c-.68 0-1.268 0-1.63.724l-2.219 4.889c-.09.227-.226.77-.226 1.223 0 2.444 2.49 1.403 2.49 2.309 0 .633-.498.543-.95.543-.997 0-1.947-.136-2.943-.136-.951 0-1.902.136-2.807.136-.227 0-.317-.181-.317-.362 0-.725 1.63-.136 2.535-2.128l8.33-17.747c2.037-4.391 2.173-4.935 2.626-4.935.362 0 .634.996.724 1.268l7.244 17.928c.543 1.268.95 2.762 1.72 3.984 1.041 1.584 3.079.815 3.079 1.72 0 .317-.227.317-.498.317-1.449 0-2.852-.136-4.301-.136-.95 0-1.901.136-2.807.136-.226 0-.77 0-.77-.362 0-.815 2.083-.498 2.083-1.811 0-.77-.724-2.354-1.087-3.305l-1.086-2.942zm-9.417-3.486c-.226.498 0 .633.453.633h6.881c.77 0 .725-.226.544-.679l-3.396-8.375c-.18-.408-.362-.408-.543 0l-3.939 8.421zm37.44 8.013c2.49 3.848 4.211 2.535 4.211 3.395 0 .408-1.947.408-2.264.408-2.535 0-3.893-1.766-5.206-3.758l-3.848-6.112c-1.268-1.946-.725-1.856-4.618-1.856-1.132 0-.905.634-.905.996v7.334c0 2.988 3.621 1.902 3.621 3.079 0 .362-.317.271-.588.271-.317 0-1.132-.135-3.984-.135-1.313 0-2.626.135-3.984.135a.357.357 0 01-.362-.362c0-.86 2.535-.362 2.535-3.033V93.125c0-3.35-2.988-1.901-2.988-3.078 0-.226.271-.407.679-.407.634 0 .453.135 2.218.135 2.038 0 3.984-.136 5.795-.136.543 0 8.24-.679 8.24 6.022 0 2.716-1.947 5.07-4.392 6.021l5.84 8.783zm-12.676-9.598c0 .679 2.173.498 3.803.498 1.494 0 4.844-.634 4.844-4.935 0-4.255-3.259-5.659-6.655-5.659-1.267 0-1.992-.09-1.992 1.268v8.828zm22.41-7.742c0-.226.136-1.584-.362-1.584h-5.659c-2.173 0-2.219.543-2.852 2.445-.091.362-.136.814-.589.814-.226 0-.362-.226-.362-.407l.362-3.395c.045-.408 0-1.359.634-1.359 2.716 0 5.387.136 9.869.136 6.293 0 9.508-.136 10.187-.136.815 0 .996.227.996.996l.181 2.807c.045.363.09.77-.362.77-1.268 0 .588-2.626-2.943-2.626h-4.98c-1.585 0-1.404-.136-1.404 1.72v17.747c0 2.943 2.807 1.766 2.807 2.852 0 .091.046.408-.317.408-.815 0-1.811-.136-2.807-.136-3.893 0-4.572.136-4.753.136-.317 0-.408-.091-.408-.453 0-.815 2.762-.498 2.762-2.58V93.125zm16.389-.543c-.046-2.535-3.034-1.856-3.034-2.626 0-.317.272-.362.544-.362 1.267 0 2.535.136 3.848.136 1.086 0 2.173-.136 3.259-.136.589 0 .68.227.68.362 0 .68-2.49.046-2.49 2.626v7.515c0 .498 0 .634.543.634h12.721c.363 0 .272-.86.272-.996v-7.153c0-2.4-2.626-1.81-2.626-2.626 0-.226.091-.362.589-.362 1.132 0 2.942.136 3.622.136 1.267 0 1.81-.136 2.49-.136.905 0 .996.362.996.544 0 .633-2.355.045-2.355 2.444v18.471c0 2.536 3.169 1.902 3.169 2.807 0 .091-.135.408-.362.408-.95 0-2.037-.136-3.259-.136-2.219 0-3.215.136-3.849.136-.316 0-.814.09-.814-.453 0-.815 2.444-.362 2.444-2.535v-8.376c0-.543.136-.86-.271-.86h-12.858c-.407 0-.407.226-.407.589v8.647c0 2.354 3.305 1.584 3.305 2.671 0 .181-.227.271-.544.271-.452 0-2.988-.135-4.844-.135-2.49 0-2.852.135-2.988.135-.271 0-.362-.181-.362-.543 0-.996 2.717.136 2.717-3.305V92.582h-.136zM5.161 82.441c0 .86-.09 1.358 1.223 1.358 4.436 0 4.21-1.81 4.89-1.81.09 0 .18.045.18.316 0 1.087-1.041 2.219-2.535 2.219-2.716 0-3.803-.046-4.708-.046-.544 0-1.313.046-2.31.046-.226 0-.361-.09-.361-.136 0-.634 1.358.09 1.358-1.585V76.24c0-1.177-2.037-.815-2.037-1.268 0-.136.18-.226.588-.226.724 0 1.766.045 2.445.045 1.539 0 1.72-.045 2.037-.045.362 0 .453 0 .453.18 0 .544-1.268 0-1.268 1.042v6.474h.045zm36.762.362c0 1.675 1.992 1.042 1.992 1.494 0 .136-.181.227-.589.227-.679 0-1.313-.046-2.716-.046-.77 0-1.54.046-1.992.046-.181 0-.181-.09-.181-.181 0-.498 1.313-.136 1.313-1.45v-6.609c0-1.268-2.038-.86-2.038-1.358 0-.226.453-.181.589-.181.679 0 1.403.045 2.037.045.634 0 1.313-.045 2.309-.045.543 0 .634.045.634.18 0 .454-1.358-.044-1.358 1.269v6.61zm40.609-4.843c0 .18-.09.226-.453.226-.407 0-.407-2.988-5.115-2.988-1.676 0-4.03.86-4.03 4.346 0 1.901 1.268 4.391 4.165 4.391 3.215 0 3.305-1.177 3.305-1.947 0-2.173-2.128-1.222-2.128-1.72 0-.407.589-.272.86-.272.86 0 1.676.046 2.49.046.68 0 1.313-.046 1.947-.046.09 0 .181.046.181.181 0 .59-1.222-.135-1.222 1.63 0 .544.045.951.045 1.132 0 .227 0 .272-.18.362-1.721.725-3.713 1.358-5.66 1.358-5.251 0-6.066-3.53-6.066-4.617 0-2.31 1.856-5.388 6.383-5.388 2.49 0 3.984.906 4.482.906.407 0 .453-.408.724-.408.272 0 .272.317.272.544v2.263zm29.246-.59c0-2.67-1.992-1.765-1.992-2.399 0-.136.091-.226.317-.226.362 0 .679.045.996.045.453 0 .951-.045 1.901-.045.589 0 .363.09.679.362l7.199 6.067c.226.18.453.362.543.362.091 0 .136-.181.136-.498v-4.573c0-1.267-2.173-.996-2.173-1.449 0-.09.045-.226.271-.226.272 0 .815.045 2.038.045 1.132 0 1.765-.045 1.901-.045.362 0 .362.136.362.181 0 .408-1.539.09-1.539 1.54v7.741c0 .317 0 .407-.226.407-.272 0-.362-.09-.453-.18l-8.647-7.154c-.136-.09-.226-.18-.317-.18s-.136.09-.136.226v4.708c0 2.626 2.309 1.72 2.309 2.354 0 .181-.453.181-.679.181-.86 0-1.494-.045-2.128-.045-.588 0-1.041.045-1.539.045-.181 0-.543.09-.543-.18 0-.544 1.72-.318 1.72-1.721V77.37zm42.964.906c0 .589 0 .68.769.68h1.132c1.539 0 1.585-1.269 1.947-1.269.136 0 .317-.045.362.363l.136 2.444c0 .181.136.68-.317.68-.589 0-.091-1.45-1.947-1.45h-1.313c-.815 0-.769.182-.769.951v1.766c0 .86-.091 1.358 1.222 1.358 4.437 0 4.21-1.81 4.889-1.81.091 0 .181.045.181.316 0 1.087-1.041 2.219-2.535 2.219-2.716 0-3.803-.046-4.708-.046-.543 0-1.313.046-2.309.046-.226 0-.362-.09-.362-.136 0-.634 1.358.09 1.358-1.585V76.33c0-1.222-2.037-.815-2.037-1.358 0-.136.136-.226.407-.226.725 0 2.037.045 4.754.045 1.267 0 2.49-.045 4.074-.045.227 0 .362.136.362.271l.091 1.359c0 .18.091.633-.317.633-.86 0 .543-1.63-2.897-1.63-2.173 0-2.264 0-2.264.951v1.947h.091zM86.063 50.298c.272-.181.589-.408.996-.906 1.087-1.449.951-3.395-.317-4.346a2.428 2.428 0 00-1.222-.498c-1.856-.317-3.486 1.222-3.803 1.494-.362.362-.634.815-.86 1.268-.996 2.082-.407 4.436 1.358 5.297.453.226.996.316 1.494.316 3.667.046 5.84-2.806 7.515-5.794 1.63-2.988 3.441-8.376 4.12-10.096.68-1.675 2.626-2.264 2.626-2.264s-4.075-.045-6.112 5.66c-2.037 5.704-1.63 6.066-2.535 7.605-.906 1.585-2.535 4.21-5.614 4.165-.362 0-.724-.09-1.086-.226-1.404-.68-1.902-2.626-1.087-4.301.136-.317.362-.589.543-.86l.317-.317c.227-.181 2.716-2.173 4.165-.724 0 0 .589.543.453 1.539a3.08 3.08 0 01-.815 2.037c-.453.498-1.041.815-1.63.905l1.494.046z" fill="#DBA000"/><path d="M75.153 47.129a2.602 2.602 0 011.946-.86 2.628 2.628 0 012.626 2.625c0 1.449-.95 2.4-2.58 2.671-2.536.408-5.976-1.086-7.56-1.901.452-.498.814-1.041 1.267-1.72.18-.272.362-.634.543-1.042a7.712 7.712 0 001.585-.86c.362-.272.77-.543 1.086-.86 4.256-3.848 4.89-9.28 3.712-10.82-.271-.272-.724-.498-1.131-.498a1.58 1.58 0 00-.996.362c-.408.272-2.671 3.758-3.803 6.655-.906 2.309-1.132 3.848-1.811 5.614-2.49.634-5.025-.045-6.293-1.992-1.675-2.58-.498-6.338 2.671-8.42 2.264-1.495 5.116-1.993 7.198-1.223l-.815-.725c-2.082-.588-4.617-.18-6.79 1.268-3.622 2.4-4.98 6.7-3.034 9.643 1.358 2.083 4.03 2.898 6.7 2.354-.271.544-.543 1.132-.95 1.766-2.762-1.268-3.712-.906-4.437-.815-.996.136-1.856.86-1.856 1.901 0 1.042.815 1.857 1.856 1.857 0 0 2.264.407 4.754-1.902 2.037.906 4.799 2.49 6.927 2.535 1.584.046 2.852-.633 3.44-1.177.68-.633 1.132-1.494 1.132-2.49a3.343 3.343 0 00-3.35-3.35c-.498 0-.996.09-1.404.317-.045.045-.135.045-.18.09l-.453.997zm-1.359-6.882c1.63-5.116 1.947-5.297 2.128-5.478.181-.18.408-.317.68-.317.316 0 .633.227.814.498.68 2.083-.407 6.791-4.391 10.096-.181.136-.317.227-.498.362a7.719 7.719 0 00-.634.408c.77-1.947 1.494-4.256 1.901-5.569zm-6.926 10.684c-1.132.815-2.4.77-2.4.77a1.265 1.265 0 01-1.267-1.267c0-.68.543-1.223 1.222-1.313.589-.09 2.037-.136 3.622.679.045 0-.045.317-1.177 1.132z" fill="#DBA000"/><path d="M90.636 26.258c-.272-.453-.86-.68-1.449-.68-.226 0-.634.091-.815.182-.407.226-2.263.86-4.165 5.75-.498 1.267-.996 2.897-1.494 4.482-2.943 1.358-6.338.498-7.47-1.947-1.132-2.445.362-5.523 3.305-6.927 1.992-.905 4.437-.996 6.202-.18l-.95-.952c-1.675-.588-3.713-.498-5.614.363-3.44 1.584-5.161 5.206-3.848 8.058 1.267 2.716 4.799 3.758 8.058 2.535v-.045c-.543 1.81-1.177 3.486-1.901 4.572-.815 1.404-2.4 2.355-4.165 2.355a4.705 4.705 0 01-4.709-4.709c0-1.584.634-3.169 1.857-4.029l-.996.136c-.996.996-1.63 2.354-1.63 3.893a5.468 5.468 0 005.478 5.478c.226 0 .498 0 .724-.045 4.346-.634 6.52-5.885 6.52-5.885.497-.996.905-1.947 1.086-2.58 1.177-.68 2.807-2.129 4.21-3.804 2.988-3.35 2.037-5.75 1.766-6.021zm-2.219 5.569c-1.086 1.312-2.308 2.535-3.395 3.304 1.675-7.56 3.35-8.601 3.667-8.782.181-.091.317-.136.498-.136.68-.046 1.087.407 1.132.905.09 1.041-.227 2.671-1.902 4.709z" fill="#DBA000"/><path d="M81.445 67.909c-13.943 0-25.261-15.212-25.261-33.955C56.184 15.257 67.502 0 81.445 0c13.944 0 25.263 15.211 25.263 33.954.045 18.743-11.319 33.955-25.263 33.955zm0-66.55c-13.22 0-23.949 14.622-23.949 32.64 0 17.974 10.73 32.642 23.95 32.642 13.219 0 23.949-14.623 23.949-32.641.045-18.019-10.73-32.642-23.95-32.642z" fill="#DBA000"/><path d="M95.978 11.68c-.317.272-1.222 1.087-2.173 1.087-3.305.045-4.346 1.222-4.709 1.901-.226.272-.316.634-.316 1.042 0 .633.407 1.222.95 1.539v.045c-.045.68-.543 1.268-1.222 1.268-.724 0-1.177-.589-1.268-1.268 0-.09-.045-.77-.045-.77.181 0 .498-.226.498-.226.362-.226.589-.634.589-1.132 0-.724-.589-1.358-1.358-1.358-.725 0-1.359.589-1.359 1.358 0 .453.227.86.589 1.087a1.574 1.574 0 01-1.585 1.403c-.86 0-1.584-.724-1.584-1.584 0-.136 0-.227.045-.362 1.449-.182 2.58-1.404 2.58-2.898 0-.77-.362-1.584-.905-2.082-2.761-1.857-2.49-3.17-2.58-3.441-.046.226.18 1.584-2.581 3.44-.498.544-.905 1.314-.905 2.083 0 1.494 1.131 2.716 2.58 2.898a.996.996 0 01.045.362c0 .86-.724 1.584-1.584 1.584a1.612 1.612 0 01-1.585-1.403c.362-.227.589-.634.589-1.087 0-.724-.589-1.358-1.358-1.358-.725 0-1.358.589-1.358 1.358 0 .453.226.86.588 1.132 0 0 .317.227.498.227 0 0 0 .678-.045.77-.09.678-.589 1.267-1.268 1.267s-1.222-.589-1.222-1.268v-.045c.543-.317.95-.906.95-1.54 0-.362-.135-.724-.316-1.04-.408-.68-1.45-1.857-4.709-1.902-.95 0-1.856-.815-2.173-1.087 0 0 2.037 2.49 2.264 2.898.226.362.272.453.226.815-.045.362.046.588.046.588 0 .589.452 1.042 1.04 1.042 0 0 .454-.091.544.543.09.634.498 1.584.634 2.037.045.09.045.181-.046.317-.09.09-.226.226-.226.588 0 .363.408.77.408.77-.09.226-.09.543-.09.815 0 1.358 4.255 2.49 9.008 2.49 4.754 0 9.01-1.087 9.01-2.49 0-.272 0-.589-.091-.815 0 0 .407-.407.407-.77 0-.362-.18-.498-.226-.588-.09-.09-.09-.181-.045-.317.09-.453.498-1.358.634-2.037.09-.634.543-.543.543-.543.588 0 1.041-.453 1.041-1.042 0 0 .045-.226.045-.588-.045-.363 0-.408.227-.815.271-.408 2.354-2.898 2.354-2.898zm-24.04 4.845a.6.6 0 01-.588-.59.6.6 0 01.588-.588.6.6 0 01.589.589.6.6 0 01-.589.588zm14.125-1.313c0-.453.362-.815.815-.815.453 0 .815.362.815.815a.812.812 0 01-.815.814.812.812 0 01-.815-.814zm.09 4.436c.363.046.635.272.59.453-.046.181-.363.317-.68.272-.362-.046-.633-.272-.588-.453 0-.227.317-.362.679-.272zm-4.843-7.515a.89.89 0 01.86-.86.86.86 0 110 1.72c-.498-.045-.86-.407-.86-.86zm1.267 7.515a.454.454 0 01-.905 0 .454.454 0 01.905 0zm-3.893.136c.045.181-.272.408-.589.453-.362.045-.679-.09-.679-.272-.045-.18.272-.407.589-.453.362-.09.634.046.679.272zM76.6 15.212c0-.453.362-.815.815-.815.453 0 .815.362.815.815a.811.811 0 01-.815.814.812.812 0 01-.815-.814zm-2.58 5.613a.454.454 0 01.906 0 .454.454 0 01-.454.453.487.487 0 01-.452-.453zm8.104 3.079c-4.256 0-7.787-.68-7.787-1.54s3.531-1.539 7.787-1.539c4.255 0 7.786.68 7.786 1.54s-3.53 1.539-7.786 1.539zm7.56-2.626a.454.454 0 010-.905c.272 0 .453.226.453.452a.487.487 0 01-.453.453zm2.671-4.753a.6.6 0 01-.588-.59.6.6 0 01.588-.588.6.6 0 01.589.589.6.6 0 01-.589.588zm3.08 29.065c-1.359-.544-3.079.769-3.758 2.67-.407 1.132-.407 2.4 0 3.124.317.498.68.815 1.222.86h.317c1.63-.226 2.988-1.63 3.803-3.667.95-2.354.68-4.708-.815-5.93-.362.135-.77.18-1.177.226h-.362a.6.6 0 01-.589-.588c0-.317.227-.544.544-.544.498-.045.95 0 1.403.136a3.545 3.545 0 001.585-2.943c0-1.992-1.449-3.531-3.667-3.667a20.848 20.848 0 00-1.947-.09 7.861 7.861 0 00-5.161 2.127c-.272.272-.634.634-.86.996-1.087 1.72-1.494 3.894.09 4.935 1.268.86 3.441-.362 4.573-2.037a6.68 6.68 0 00.77-1.494c.271-.906.135-1.856-.499-2.354-.905-.725-2.444-.317-3.44.905a4.25 4.25 0 00-.815 1.63s-.634 1.087-.634 1.041c-.272-.996.272-2.309 1.041-3.26 1.177-1.448 2.943-1.9 4.03-1.04.271.226.498.543.633.905.453 1.267.272 2.943-.633 4.437-1.404 2.218-3.849 3.123-5.524 2.082-1.675-1.041-1.901-3.667-.498-5.885a6.686 6.686 0 011.132-1.358c.68-.59 2.626-2.219 5.84-2.31 3.441-.09 4.528.59 5.297.997 1.041.724 1.72 1.992 1.766 3.35.045 2.127-2.038 3.395-2.083 3.395 2.128 1.177 2.898 4.165 1.766 6.972-1.132 2.852-3.894 4.482-6.293 3.758-1.585-.544-2.218-2.852-1.449-5.07.725-2.038 2.4-3.35 3.894-3.08l.498.77zm71.53 31.418c0 1.223-.996 2.219-2.173 2.219a2.222 2.222 0 01-2.218-2.219c0-1.222.996-2.218 2.218-2.218 1.177.045 2.173 1.041 2.173 2.218zm-3.939.046c0 .996.815 1.81 1.766 1.81.951 0 1.766-.814 1.766-1.81 0-.996-.77-1.811-1.766-1.811-.996-.045-1.766.77-1.766 1.81zm2.853 1.267h-.725l-.724-.996v.996h-.589v-2.535h.815c.634 0 .951.272.951.77 0 .362-.181.633-.543.724l.815 1.041zm-1.313-1.448c.317 0 .452-.136.452-.317 0-.227-.135-.317-.452-.317h-.136v.679h.136v-.045z" fill="#DBA000"/></svg>