<svg width="12" height="12" viewBox="0 0 12 12" fill="none" xmlns="http://www.w3.org/2000/svg"><path fill-rule="evenodd" clip-rule="evenodd" d="M11.49 9.33c-.327.58-.68.685-1.398.727-.72.047-2.526.068-4.09.068-1.568 0-3.375-.021-4.094-.068-.717-.042-1.071-.148-1.4-.727C.174 8.752 0 7.755 0 6.002v-.007c0-1.746.173-2.749.509-3.32.328-.58.682-.685 1.399-.734.72-.043 2.526-.066 4.094-.066 1.566 0 3.373.026 4.093.066.72.049 1.073.154 1.396.733.338.572.509 1.575.509 3.321v.007c0 1.753-.171 2.75-.51 3.328zM8.25 6L4.5 8.25v-4.5L8.25 6z" fill="#fff"/></svg>