<svg width="167" height="115" viewBox="0 0 167 115" fill="none" xmlns="http://www.w3.org/2000/svg">
<path d="M0.0456243 108.065C-0.090193 107.386 0.0908982 106.979 0.407805 106.979C0.905802 106.979 0.905802 107.386 1.08689 108.111C1.49434 109.695 3.57687 113.317 8.37575 113.317C11.6806 113.317 14.9403 111.461 14.9403 107.794C14.9403 101.093 0.815255 104.851 0.815255 95.7512C0.815255 91.3145 4.5276 89.1867 8.55685 89.1867C12.7672 89.1867 13.899 90.4544 14.397 90.4544C14.7139 90.4544 14.7592 90.0922 15.1214 90.0922C15.3477 90.0922 15.4835 90.1827 15.5288 90.5902L16.0721 95.3438C16.1173 95.6154 16.0268 95.8871 15.7099 95.8871C15.3477 95.8871 15.0761 95.1627 14.9855 94.8458C13.9443 91.8578 11.409 90.3185 8.33048 90.3185C5.56886 90.3185 2.67143 91.6314 2.67143 94.8458C2.67143 101.41 16.7964 97.5621 16.7964 107.16C16.7964 110.103 14.7592 114.449 6.83649 114.449C4.25596 114.449 1.08689 113.181 0.951073 112.547L0.0456243 108.065Z" fill="#DBA000"/>
<path d="M26.9375 93.1254C26.9375 92.899 27.0733 91.5409 26.5753 91.5409H20.9162C18.7431 91.5409 18.6979 92.0841 18.0641 93.9856C17.9735 94.3478 17.9282 94.8005 17.4755 94.8005C17.2492 94.8005 17.1133 94.5741 17.1133 94.393L17.4755 90.9976C17.5208 90.5902 17.4755 89.6394 18.1093 89.6394C20.8257 89.6394 23.4968 89.7752 27.9787 89.7752C34.2716 89.7752 37.4859 89.6394 38.165 89.6394C38.9799 89.6394 39.161 89.8658 39.161 90.6354L39.3421 93.4423C39.3874 93.8045 39.4327 94.212 38.9799 94.212C37.7123 94.212 39.5685 91.5861 36.0372 91.5861H31.0573C29.4727 91.5861 29.6538 91.4503 29.6538 93.3065V111.053C29.6538 113.996 32.4607 112.819 32.4607 113.905C32.4607 113.996 32.506 114.313 32.1438 114.313C31.3289 114.313 30.3329 114.177 29.3369 114.177C25.4435 114.177 24.7644 114.313 24.5833 114.313C24.2664 114.313 24.1758 114.222 24.1758 113.86C24.1758 113.045 26.9375 113.362 26.9375 111.28V93.1254Z" fill="#DBA000"/>
<path d="M51.7468 93.0802C51.7468 90.4544 48.6682 90.7713 48.6682 90.0922C48.6682 89.5489 49.2115 89.5942 49.619 89.5942C50.298 89.5942 51.0224 89.73 52.4259 89.73C53.8293 89.73 55.2327 89.5942 57.9944 89.5942C64.1061 89.5942 65.6454 92.9443 65.6454 95.5249C65.6454 99.0561 62.3858 100.233 62.3858 100.46C62.3858 101.003 67.8638 101.093 67.8638 106.888C67.8638 109.197 66.1887 114.268 59.3978 114.268C58.1302 114.268 56.0476 114.132 54.8706 114.132C53.286 114.132 51.611 114.268 50.0264 114.268C49.8453 114.268 49.1662 114.177 49.1662 113.905C49.1662 113.543 49.5737 113.453 50.2075 113.226C50.5697 113.136 51.792 112.955 51.792 110.238V93.0802H51.7468ZM54.4631 110.057C54.4631 112.547 54.282 113.317 59.2167 113.317C63.8345 113.317 65.1021 110.238 65.1021 108.156C65.1021 105.938 64.9663 101.456 56.9531 101.456C54.282 101.456 54.4631 101.954 54.4631 102.27V110.057ZM54.4631 99.1014C54.4631 100.233 54.0557 100.369 57.1795 100.369C62.8838 100.369 63.1554 98.2412 63.1554 96.6114C63.1554 92.8538 59.9863 90.726 56.4551 90.726C54.282 90.726 54.4178 91.3145 54.4178 93.3518V99.1014H54.4631Z" fill="#DBA000"/>
<path d="M84.1618 105.938C83.7997 105.123 83.6186 104.625 82.6226 104.625H74.9715C74.2924 104.625 73.7039 104.625 73.3417 105.349L71.1234 110.238C71.0328 110.465 70.897 111.008 70.897 111.461C70.897 113.905 73.387 112.864 73.387 113.77C73.387 114.403 72.889 114.313 72.4363 114.313C71.4403 114.313 70.4896 114.177 69.4936 114.177C68.5428 114.177 67.5921 114.313 66.6867 114.313C66.4603 114.313 66.3698 114.132 66.3698 113.951C66.3698 113.226 67.9996 113.815 68.905 111.823L77.2351 94.0761C79.2724 89.6847 79.4082 89.1414 79.861 89.1414C80.2231 89.1414 80.4948 90.1374 80.5853 90.4091L87.8289 108.337C88.3722 109.605 88.7796 111.099 89.5493 112.321C90.5905 113.905 92.6278 113.136 92.6278 114.041C92.6278 114.358 92.4014 114.358 92.1298 114.358C90.6811 114.358 89.2776 114.222 87.8289 114.222C86.8782 114.222 85.9275 114.358 85.022 114.358C84.7956 114.358 84.2524 114.358 84.2524 113.996C84.2524 113.181 86.3349 113.498 86.3349 112.185C86.3349 111.415 85.6106 109.831 85.2484 108.88L84.1618 105.938ZM74.7452 102.452C74.5188 102.95 74.7452 103.085 75.1979 103.085H82.0793C82.8489 103.085 82.8037 102.859 82.6226 102.406L79.2271 94.0309C79.0461 93.6234 78.865 93.6234 78.6839 94.0309L74.7452 102.452Z" fill="#DBA000"/>
<path d="M112.185 110.465C114.675 114.313 116.396 113 116.396 113.86C116.396 114.268 114.449 114.268 114.132 114.268C111.597 114.268 110.239 112.502 108.926 110.51L105.078 104.398C103.81 102.452 104.353 102.542 100.46 102.542C99.3281 102.542 99.5545 103.176 99.5545 103.538V110.872C99.5545 113.86 103.176 112.774 103.176 113.951C103.176 114.313 102.859 114.222 102.588 114.222C102.271 114.222 101.456 114.087 98.6038 114.087C97.2909 114.087 95.978 114.222 94.6198 114.222C94.3934 114.222 94.2576 114.041 94.2576 113.86C94.2576 113 96.7929 113.498 96.7929 110.827V93.1254C96.7929 89.7753 93.8049 91.224 93.8049 90.0469C93.8049 89.8206 94.0765 89.6395 94.484 89.6395C95.1178 89.6395 94.9367 89.7753 96.7023 89.7753C98.7396 89.7753 100.686 89.6395 102.497 89.6395C103.04 89.6395 110.737 88.9604 110.737 95.6607C110.737 98.377 108.79 100.731 106.345 101.682L112.185 110.465ZM99.5092 100.867C99.5092 101.546 101.682 101.365 103.312 101.365C104.806 101.365 108.156 100.731 108.156 96.4303C108.156 92.1747 104.897 90.7713 101.501 90.7713C100.234 90.7713 99.5092 90.6807 99.5092 92.0389V100.867Z" fill="#DBA000"/>
<path d="M121.919 93.1254C121.919 92.899 122.055 91.5409 121.557 91.5409H115.898C113.725 91.5409 113.679 92.0841 113.046 93.9856C112.955 94.3478 112.91 94.8005 112.457 94.8005C112.231 94.8005 112.095 94.5741 112.095 94.393L112.457 90.9976C112.502 90.5902 112.457 89.6394 113.091 89.6394C115.807 89.6394 118.478 89.7752 122.96 89.7752C129.253 89.7752 132.468 89.6394 133.147 89.6394C133.962 89.6394 134.143 89.8658 134.143 90.6354L134.324 93.4423C134.369 93.8045 134.414 94.212 133.962 94.212C132.694 94.212 134.55 91.5861 131.019 91.5861H126.039C124.454 91.5861 124.635 91.4503 124.635 93.3065V111.053C124.635 113.996 127.442 112.819 127.442 113.905C127.442 113.996 127.488 114.313 127.125 114.313C126.31 114.313 125.314 114.177 124.318 114.177C120.425 114.177 119.746 114.313 119.565 114.313C119.248 114.313 119.157 114.222 119.157 113.86C119.157 113.045 121.919 113.362 121.919 111.28V93.1254Z" fill="#DBA000"/>
<path d="M138.308 92.5822C138.262 90.0469 135.274 90.726 135.274 89.9564C135.274 89.6395 135.546 89.5942 135.818 89.5942C137.085 89.5942 138.353 89.73 139.666 89.73C140.752 89.73 141.839 89.5942 142.925 89.5942C143.514 89.5942 143.605 89.8206 143.605 89.9564C143.605 90.6355 141.115 90.0017 141.115 92.5822V100.097C141.115 100.595 141.115 100.731 141.658 100.731H154.379C154.742 100.731 154.651 99.8711 154.651 99.7352V92.5822C154.651 90.1828 152.025 90.7713 152.025 89.9564C152.025 89.73 152.116 89.5942 152.614 89.5942C153.746 89.5942 155.556 89.73 156.236 89.73C157.503 89.73 158.046 89.5942 158.726 89.5942C159.631 89.5942 159.722 89.9564 159.722 90.1375C159.722 90.7713 157.367 90.1828 157.367 92.5822V111.053C157.367 113.589 160.536 112.955 160.536 113.86C160.536 113.951 160.401 114.268 160.174 114.268C159.224 114.268 158.137 114.132 156.915 114.132C154.696 114.132 153.7 114.268 153.066 114.268C152.75 114.268 152.252 114.358 152.252 113.815C152.252 113 154.696 113.453 154.696 111.28V102.904C154.696 102.361 154.832 102.044 154.425 102.044H141.567C141.16 102.044 141.16 102.27 141.16 102.633V111.28C141.16 113.634 144.465 112.864 144.465 113.951C144.465 114.132 144.238 114.222 143.921 114.222C143.469 114.222 140.933 114.087 139.077 114.087C136.587 114.087 136.225 114.222 136.089 114.222C135.818 114.222 135.727 114.041 135.727 113.679C135.727 112.683 138.444 113.815 138.444 110.374V92.5822H138.308Z" fill="#DBA000"/>
<path d="M5.1614 82.4411C5.1614 83.3013 5.07086 83.7993 6.38376 83.7993C10.8205 83.7993 10.5941 81.9884 11.2732 81.9884C11.3637 81.9884 11.4543 82.0337 11.4543 82.3053C11.4543 83.3918 10.413 84.5236 8.91901 84.5236C6.20266 84.5236 5.11613 84.4784 4.21068 84.4784C3.66741 84.4784 2.89777 84.5236 1.90178 84.5236C1.67542 84.5236 1.53961 84.4331 1.53961 84.3878C1.53961 83.754 2.89778 84.4784 2.89778 82.8033V76.2388C2.89778 75.0617 0.860519 75.4239 0.860519 74.9712C0.860519 74.8354 1.0416 74.7448 1.44906 74.7448C2.17341 74.7448 3.21469 74.7901 3.89377 74.7901C5.43304 74.7901 5.61413 74.7448 5.93103 74.7448C6.29321 74.7448 6.38376 74.7448 6.38376 74.9259C6.38376 75.4692 5.11613 74.9259 5.11613 75.9672V82.4411H5.1614Z" fill="#DBA000"/>
<path d="M41.9226 82.8033C41.9226 84.4784 43.9146 83.8446 43.9146 84.2973C43.9146 84.4331 43.7335 84.5237 43.3261 84.5237C42.647 84.5237 42.0132 84.4784 40.6097 84.4784C39.8401 84.4784 39.0705 84.5237 38.6178 84.5237C38.4367 84.5237 38.4367 84.4331 38.4367 84.3426C38.4367 83.8446 39.7496 84.2068 39.7496 82.8939V76.2841C39.7496 75.0165 37.7123 75.4239 37.7123 74.9259C37.7123 74.6996 38.165 74.7448 38.3008 74.7448C38.9799 74.7448 39.7043 74.7901 40.3381 74.7901C40.9719 74.7901 41.651 74.7448 42.647 74.7448C43.1903 74.7448 43.2808 74.7901 43.2808 74.9259C43.2808 75.3787 41.9226 74.8807 41.9226 76.1936V82.8033Z" fill="#DBA000"/>
<path d="M82.532 77.9592C82.532 78.1403 82.4415 78.1855 82.0793 78.1855C81.6718 78.1855 81.6719 75.1976 76.9635 75.1976C75.2884 75.1976 72.9343 76.0577 72.9343 79.5437C72.9343 81.4452 74.2019 83.9351 77.0993 83.9351C80.3137 83.9351 80.4042 82.7581 80.4042 81.9884C80.4042 79.8154 78.2764 80.7661 78.2764 80.2681C78.2764 79.8606 78.865 79.9964 79.1366 79.9964C79.9968 79.9964 80.8117 80.0417 81.6266 80.0417C82.3057 80.0417 82.9395 79.9964 83.5733 79.9964C83.6638 79.9964 83.7544 80.0417 83.7544 80.1775C83.7544 80.7661 82.532 80.0417 82.532 81.8073C82.532 82.3506 82.5773 82.7581 82.5773 82.9391C82.5773 83.1655 82.5773 83.2108 82.3962 83.3013C80.6759 84.0257 78.6839 84.6595 76.7372 84.6595C71.4856 84.6595 70.6706 81.1283 70.6706 80.0417C70.6706 77.7328 72.5268 74.6543 77.0541 74.6543C79.544 74.6543 81.038 75.5597 81.536 75.5597C81.9435 75.5597 81.9888 75.1523 82.2604 75.1523C82.532 75.1523 82.532 75.4692 82.532 75.6956V77.9592Z" fill="#DBA000"/>
<path d="M111.778 77.3706C111.778 74.6995 109.786 75.605 109.786 74.9712C109.786 74.8354 109.877 74.7448 110.103 74.7448C110.465 74.7448 110.782 74.7901 111.099 74.7901C111.552 74.7901 112.05 74.7448 113 74.7448C113.589 74.7448 113.363 74.8354 113.679 75.107L120.878 81.1735C121.104 81.3546 121.331 81.5357 121.421 81.5357C121.512 81.5357 121.557 81.3546 121.557 81.0377V76.4652C121.557 75.1975 119.384 75.4692 119.384 75.0164C119.384 74.9259 119.429 74.7901 119.655 74.7901C119.927 74.7901 120.47 74.8353 121.693 74.8353C122.825 74.8353 123.458 74.7901 123.594 74.7901C123.956 74.7901 123.956 74.9259 123.956 74.9712C123.956 75.3786 122.417 75.0617 122.417 76.5104V84.252C122.417 84.5689 122.417 84.6595 122.191 84.6595C121.919 84.6595 121.829 84.5689 121.738 84.4784L113.091 77.3253C112.955 77.2348 112.865 77.1442 112.774 77.1442C112.683 77.1442 112.638 77.2348 112.638 77.3706V82.0789C112.638 84.7047 114.947 83.7993 114.947 84.4331C114.947 84.6142 114.494 84.6142 114.268 84.6142C113.408 84.6142 112.774 84.5689 112.14 84.5689C111.552 84.5689 111.099 84.6142 110.601 84.6142C110.42 84.6142 110.058 84.7047 110.058 84.4331C110.058 83.8898 111.778 84.1162 111.778 82.7128V77.3706Z" fill="#DBA000"/>
<path d="M154.742 78.2761C154.742 78.8646 154.742 78.9551 155.511 78.9551H156.643C158.182 78.9551 158.228 77.6875 158.59 77.6875C158.726 77.6875 158.907 77.6422 158.952 78.0497L159.088 80.4944C159.088 80.6755 159.224 81.1735 158.771 81.1735C158.182 81.1735 158.68 79.7248 156.824 79.7248H155.511C154.696 79.7248 154.742 79.9059 154.742 80.6755V82.4411C154.742 83.3013 154.651 83.7993 155.964 83.7993C160.401 83.7993 160.174 81.9884 160.853 81.9884C160.944 81.9884 161.034 82.0337 161.034 82.3053C161.034 83.3918 159.993 84.5236 158.499 84.5236C155.783 84.5236 154.696 84.4784 153.791 84.4784C153.248 84.4784 152.478 84.5236 151.482 84.5236C151.256 84.5236 151.12 84.4331 151.12 84.3878C151.12 83.754 152.478 84.4784 152.478 82.8033V76.3293C152.478 75.107 150.441 75.5144 150.441 74.9712C150.441 74.8354 150.577 74.7448 150.848 74.7448C151.573 74.7448 152.885 74.7901 155.602 74.7901C156.869 74.7901 158.092 74.7448 159.676 74.7448C159.903 74.7448 160.038 74.8806 160.038 75.0164L160.129 76.3746C160.129 76.5557 160.22 77.0084 159.812 77.0084C158.952 77.0084 160.355 75.3786 156.915 75.3786C154.742 75.3786 154.651 75.3786 154.651 76.3293V78.2761H154.742Z" fill="#DBA000"/>
<path d="M86.0633 50.2977C86.3349 50.1166 86.6518 49.8902 87.0593 49.3922C88.1458 47.9435 88.01 45.9968 86.7423 45.0461C86.3802 44.7745 85.9727 44.5934 85.52 44.5481C83.6638 44.2312 82.034 45.7704 81.7171 46.0421C81.3549 46.4043 81.0833 46.857 80.8569 47.3097C79.8609 49.3922 80.4495 51.7464 82.2151 52.6066C82.6678 52.8329 83.2111 52.9235 83.7091 52.9235C87.3762 52.9688 89.5492 50.1166 91.2243 47.1286C92.8541 44.1406 94.665 38.7532 95.3441 37.0329C96.0232 35.3578 97.9699 34.7692 97.9699 34.7692C97.9699 34.7692 93.8954 34.724 91.8581 40.4283C89.8209 46.1326 90.2283 46.4948 89.3229 48.0341C88.4174 49.6186 86.7876 52.2444 83.7091 52.1991C83.3469 52.1991 82.9847 52.1086 82.6226 51.9728C81.2191 51.2937 80.7211 49.347 81.536 47.6719C81.6718 47.355 81.8982 47.0833 82.0793 46.8117L82.3962 46.4948C82.6226 46.3137 85.1125 44.3217 86.5613 45.7705C86.5613 45.7705 87.1498 46.3137 87.014 47.3097C87.014 47.9888 86.7424 48.7584 86.1991 49.347C85.7464 49.845 85.1578 50.1619 84.5693 50.2524L86.0633 50.2977Z" fill="#DBA000"/>
<path d="M75.1526 47.1286C75.6506 46.5854 76.3297 46.2684 77.0993 46.2684C78.548 46.2684 79.7251 47.4455 79.7251 48.8943C79.7251 50.343 78.7744 51.2937 77.1446 51.5653C74.6093 51.9728 71.1686 50.4788 69.5841 49.6639C70.0368 49.1659 70.399 48.6226 70.8517 47.9435C71.0328 47.6719 71.2139 47.3097 71.395 46.9023C71.9383 46.6759 72.4815 46.4043 72.9795 46.0421C73.3417 45.7705 73.7492 45.4988 74.0661 45.1819C78.3217 41.3338 78.9555 35.9011 77.7784 34.3618C77.5068 34.0902 77.0541 33.8638 76.6466 33.8638C76.2844 33.8638 75.9222 33.9996 75.6506 34.226C75.2431 34.4976 72.9795 37.9836 71.8477 40.881C70.9423 43.1899 70.7159 44.7292 70.0368 46.4948C67.5468 47.1286 65.0116 46.4495 63.744 44.5028C62.0689 41.9223 63.246 38.1647 66.415 36.0822C68.6786 34.5882 71.5308 34.0902 73.6133 34.8598L72.7984 34.1354C70.7159 33.5469 68.1807 33.9543 66.0076 35.4031C62.3858 37.8025 61.0276 42.1034 62.9743 45.0461C64.3325 47.1286 67.0036 47.9435 69.6746 47.4003C69.403 47.9435 69.1314 48.5321 68.7239 49.1659C65.9623 47.8983 65.0116 48.2604 64.2872 48.351C63.2912 48.4868 62.4311 49.2112 62.4311 50.2524C62.4311 51.2937 63.246 52.1086 64.2872 52.1086C64.2872 52.1086 66.5508 52.5161 69.0408 50.2072C71.0781 51.1126 73.8397 52.6971 75.9675 52.7424C77.552 52.7877 78.8197 52.1086 79.4082 51.5653C80.0873 50.9315 80.54 50.0713 80.54 49.0753C80.54 47.2192 79.046 45.7252 77.1899 45.7252C76.6919 45.7252 76.1939 45.8157 75.7864 46.0421C75.7412 46.0874 75.6506 46.0874 75.6053 46.1326L75.1526 47.1286ZM73.7944 40.2472C75.4242 35.1314 75.7411 34.9503 75.9222 34.7692C76.1033 34.5882 76.3297 34.4523 76.6013 34.4523C76.9182 34.4523 77.2351 34.6787 77.4162 34.9503C78.0953 37.0329 77.0088 41.7412 73.0248 45.0461C72.8437 45.1819 72.7079 45.2725 72.5268 45.4083C72.3004 45.5441 72.0741 45.6799 71.893 45.8157C72.6626 43.869 73.387 41.5601 73.7944 40.2472ZM66.8677 50.9315C65.7359 51.7464 64.4683 51.7011 64.4683 51.7011C63.7892 51.7011 63.2007 51.1579 63.2007 50.4335C63.2007 49.7544 63.744 49.2112 64.423 49.1206C65.0116 49.0301 66.4603 48.9848 68.0448 49.7997C68.0901 49.7997 67.9996 50.1166 66.8677 50.9315Z" fill="#DBA000"/>
<path d="M90.6358 26.258C90.3642 25.8053 89.7756 25.5789 89.1871 25.5789C88.9607 25.5789 88.5533 25.6695 88.3722 25.76C87.9647 25.9864 86.1086 26.6202 84.2071 31.5096C83.7091 32.7772 83.2111 34.407 82.7131 35.9916C79.7704 37.3498 76.375 36.4896 75.2432 34.0449C74.1113 31.6002 75.6053 28.5216 78.5481 27.1182C80.54 26.2127 82.9847 26.1222 84.7504 26.9371L83.7996 25.9864C82.1246 25.3978 80.0873 25.4884 78.1859 26.3485C74.7452 27.9331 73.0248 31.5549 74.3377 34.407C75.6053 37.1234 79.1366 38.1647 82.3962 36.9423V36.897C81.8529 38.7079 81.2191 40.383 80.4948 41.4695C79.6799 42.873 78.0953 43.8237 76.3297 43.8237C73.7492 43.8237 71.6214 41.7412 71.6214 39.1154C71.6214 37.5308 72.2552 35.9463 73.4775 35.0861L72.4815 35.2219C71.4855 36.2179 70.8517 37.5761 70.8517 39.1154C70.8517 42.1486 73.2964 44.5933 76.3297 44.5933C76.5561 44.5933 76.8277 44.5933 77.0541 44.5481C81.4002 43.9143 83.5733 38.6627 83.5733 38.6627C84.0713 37.6667 84.4787 36.7159 84.6598 36.0821C85.8369 35.403 87.4667 33.9543 88.8702 32.2792C91.8581 28.9291 90.9074 26.5296 90.6358 26.258ZM88.4174 31.8265C87.3309 33.1394 86.1085 34.3618 85.022 35.1314C86.6971 27.5709 88.3722 26.5296 88.6891 26.3485C88.8702 26.258 89.006 26.2127 89.1871 26.2127C89.8662 26.1675 90.2736 26.6202 90.3189 27.1182C90.4094 28.1594 90.0925 29.7893 88.4174 31.8265Z" fill="#DBA000"/>
<path d="M81.4455 67.9087C67.5016 67.9087 56.1835 52.6971 56.1835 33.9543C56.1835 15.2568 67.5016 0 81.4455 0C95.3894 0 106.708 15.2115 106.708 33.9543C106.753 52.6971 95.3894 67.9087 81.4455 67.9087ZM81.4455 1.35817C68.2259 1.35817 57.4964 15.9812 57.4964 33.9996C57.4964 51.9728 68.2259 66.641 81.4455 66.641C94.665 66.641 105.395 52.018 105.395 33.9996C105.44 15.9812 94.665 1.35817 81.4455 1.35817Z" fill="#DBA000"/>
<path d="M95.9779 11.6803C95.661 11.9519 94.7556 12.7668 93.8049 12.7668C90.5 12.8121 89.4587 13.9892 89.0965 14.6683C88.8702 14.9399 88.7796 15.3021 88.7796 15.7096C88.7796 16.3434 89.1871 16.9319 89.7303 17.2488V17.2941C89.6851 17.9732 89.1871 18.5617 88.508 18.5617C87.7836 18.5617 87.3309 17.9732 87.2404 17.2941C87.2404 17.2035 87.1951 16.5245 87.1951 16.5245C87.3762 16.5245 87.6931 16.2981 87.6931 16.2981C88.0553 16.0717 88.2816 15.6643 88.2816 15.1663C88.2816 14.4419 87.6931 13.8081 86.9235 13.8081C86.1991 13.8081 85.5653 14.3967 85.5653 15.1663C85.5653 15.619 85.7916 16.0265 86.1538 16.2528C86.0633 17.0677 85.3842 17.6563 84.5693 17.6563C83.7091 17.6563 82.9847 16.9319 82.9847 16.0717C82.9847 15.9359 82.9847 15.8454 83.03 15.7096C84.4787 15.5285 85.6105 14.3061 85.6105 12.8121C85.6105 12.0425 85.2484 11.2276 84.7051 10.7296C81.9435 8.87342 82.2151 7.56051 82.1246 7.28888C82.0793 7.51524 82.3057 8.87342 79.544 10.7296C79.046 11.2729 78.6386 12.0425 78.6386 12.8121C78.6386 14.3061 79.7704 15.5285 81.2191 15.7096C81.2644 15.8454 81.2644 15.9359 81.2644 16.0717C81.2644 16.9319 80.54 17.6563 79.6799 17.6563C78.865 17.6563 78.1859 17.0225 78.0953 16.2528C78.4575 16.0265 78.6839 15.619 78.6839 15.1663C78.6839 14.4419 78.0953 13.8081 77.3257 13.8081C76.6013 13.8081 75.9675 14.3967 75.9675 15.1663C75.9675 15.619 76.1939 16.0265 76.5561 16.2981C76.5561 16.2981 76.873 16.5245 77.0541 16.5245C77.0541 16.5245 77.0541 17.2035 77.0088 17.2941C76.9182 17.9732 76.4202 18.5617 75.7412 18.5617C75.0621 18.5617 74.5188 17.9732 74.5188 17.2941V17.2488C75.0621 16.9319 75.4695 16.3434 75.4695 15.7096C75.4695 15.3474 75.3337 14.9852 75.1526 14.6683C74.7452 13.9892 73.7039 12.8121 70.4443 12.7668C69.4936 12.7668 68.5881 11.9519 68.2712 11.6803C68.2712 11.6803 70.3085 14.1703 70.5348 14.5777C70.7612 14.9399 70.8065 15.0305 70.7612 15.3927C70.7159 15.7548 70.8065 15.9812 70.8065 15.9812C70.8065 16.5697 71.2592 17.0225 71.8477 17.0225C71.8477 17.0225 72.3005 16.9319 72.391 17.5657C72.4815 18.1995 72.889 19.1503 73.0248 19.603C73.0701 19.6935 73.0701 19.7841 72.9795 19.9199C72.889 20.0104 72.7532 20.1463 72.7532 20.5084C72.7532 20.8706 73.1606 21.2781 73.1606 21.2781C73.0701 21.5044 73.0701 21.8213 73.0701 22.093C73.0701 23.4511 77.3257 24.583 82.0793 24.583C86.8329 24.583 91.0885 23.4964 91.0885 22.093C91.0885 21.8213 91.0885 21.5044 90.998 21.2781C90.998 21.2781 91.4054 20.8706 91.4054 20.5084C91.4054 20.1463 91.2243 20.0104 91.1791 19.9199C91.0885 19.8294 91.0885 19.7388 91.1338 19.603C91.2243 19.1503 91.6318 18.2448 91.7676 17.5657C91.8581 16.9319 92.3109 17.0225 92.3109 17.0225C92.8994 17.0225 93.3521 16.5697 93.3521 15.9812C93.3521 15.9812 93.3974 15.7548 93.3974 15.3927C93.3521 15.0305 93.3974 14.9852 93.6238 14.5777C93.8954 14.1703 95.9779 11.6803 95.9779 11.6803ZM71.9383 16.5245C71.6214 16.5245 71.3497 16.2528 71.3497 15.9359C71.3497 15.619 71.6214 15.3474 71.9383 15.3474C72.2552 15.3474 72.5268 15.619 72.5268 15.9359C72.5268 16.2528 72.2552 16.5245 71.9383 16.5245ZM86.0633 15.2116C86.0633 14.7588 86.4255 14.3967 86.8782 14.3967C87.3309 14.3967 87.6931 14.7588 87.6931 15.2116C87.6931 15.6643 87.3309 16.0265 86.8782 16.0265C86.4255 16.0265 86.0633 15.6643 86.0633 15.2116ZM86.1538 19.6483C86.516 19.6935 86.7876 19.9199 86.7424 20.101C86.6971 20.2821 86.3802 20.4179 86.0633 20.3726C85.7011 20.3273 85.4295 20.101 85.4747 19.9199C85.4747 19.6935 85.7916 19.5577 86.1538 19.6483ZM81.3097 12.133C81.3097 11.6803 81.7171 11.2729 82.1698 11.2729C82.6226 11.2729 83.03 11.635 83.03 12.133C83.03 12.5858 82.6678 12.9932 82.1698 12.9932C81.6719 12.9479 81.3097 12.5858 81.3097 12.133ZM82.5773 19.6483C82.5773 19.9199 82.3509 20.101 82.1246 20.101C81.8529 20.101 81.6718 19.8746 81.6718 19.6483C81.6718 19.3766 81.8982 19.1955 82.1246 19.1955C82.3962 19.1955 82.5773 19.4219 82.5773 19.6483ZM78.6839 19.7841C78.7291 19.9652 78.4122 20.1915 78.0953 20.2368C77.7331 20.2821 77.4162 20.1463 77.4162 19.9652C77.371 19.7841 77.6879 19.5577 78.0048 19.5124C78.367 19.4219 78.6386 19.5577 78.6839 19.7841ZM76.6013 15.2116C76.6013 14.7588 76.9635 14.3967 77.4162 14.3967C77.869 14.3967 78.2311 14.7588 78.2311 15.2116C78.2311 15.6643 77.869 16.0265 77.4162 16.0265C76.9635 16.0265 76.6013 15.6643 76.6013 15.2116ZM74.0208 20.8253C74.0208 20.5537 74.2472 20.3726 74.4735 20.3726C74.7452 20.3726 74.9263 20.599 74.9263 20.8253C74.9263 21.097 74.6999 21.2781 74.4735 21.2781C74.2472 21.2781 74.0208 21.0517 74.0208 20.8253ZM82.1246 23.9039C77.869 23.9039 74.3377 23.2248 74.3377 22.3646C74.3377 21.5044 77.869 20.8253 82.1246 20.8253C86.3802 20.8253 89.9114 21.5044 89.9114 22.3646C89.9114 23.2248 86.3802 23.9039 82.1246 23.9039ZM89.6851 21.2781C89.4134 21.2781 89.2323 21.0517 89.2323 20.8253C89.2323 20.5537 89.4587 20.3726 89.6851 20.3726C89.9567 20.3726 90.1378 20.599 90.1378 20.8253C90.1378 21.0517 89.9114 21.2781 89.6851 21.2781ZM92.3561 16.5245C92.0392 16.5245 91.7676 16.2528 91.7676 15.9359C91.7676 15.619 92.0392 15.3474 92.3561 15.3474C92.6731 15.3474 92.9447 15.619 92.9447 15.9359C92.9447 16.2528 92.6731 16.5245 92.3561 16.5245Z" fill="#DBA000"/>
<path d="M95.4347 45.5893C94.0765 45.0461 92.3562 46.359 91.6771 48.2604C91.2696 49.3922 91.2696 50.6599 91.6771 51.3842C91.994 51.8822 92.3562 52.1991 92.8994 52.2444C92.99 52.2444 93.1258 52.2444 93.2163 52.2444C94.8461 52.018 96.2043 50.6146 97.0192 48.5773C97.9699 46.2232 97.6983 43.869 96.2043 42.6466C95.8421 42.7824 95.4347 42.8277 95.0272 42.873C94.7556 42.873 94.665 42.873 94.665 42.873C94.3481 42.873 94.0765 42.6014 94.0765 42.2845C94.0765 41.9675 94.3029 41.7412 94.6198 41.7412C95.1178 41.6959 95.5705 41.7412 96.0232 41.877C96.9739 41.2432 97.6078 40.1567 97.6078 38.9343C97.6078 36.9423 96.159 35.403 93.9407 35.2672C93.4427 35.222 92.8089 35.1767 91.994 35.1767C89.3682 35.2672 87.6478 36.5349 86.8329 37.3045C86.5613 37.5761 86.1991 37.9383 85.9727 38.3005C84.8862 40.0208 84.4787 42.1939 86.0633 43.2352C87.3309 44.0954 89.504 42.873 90.6358 41.1979C90.9527 40.7452 91.2243 40.2019 91.4054 39.7039C91.6771 38.7985 91.5413 37.8478 90.9074 37.3498C90.002 36.6254 88.4627 37.0329 87.4667 38.2552C87.0593 38.7532 86.7876 39.3418 86.6518 39.885C86.6518 39.885 86.018 40.9716 86.018 40.9263C85.7464 39.9303 86.2896 38.6174 87.0593 37.6667C88.2364 36.2179 90.002 35.7652 91.0885 36.6254C91.3602 36.8518 91.5865 37.1687 91.7223 37.5308C92.1751 38.7985 91.994 40.4736 91.0885 41.9675C89.6851 44.1859 87.2404 45.0913 85.5653 44.0501C83.8902 43.0088 83.6638 40.383 85.0673 38.1647C85.3842 37.6667 85.7917 37.1687 86.1991 36.8065C86.8782 36.2179 88.8249 34.5881 92.0392 34.4976C95.48 34.407 96.5665 35.0861 97.3361 35.4936C98.3774 36.2179 99.0565 37.4856 99.1018 38.8437C99.147 40.9715 97.0645 42.2392 97.0192 42.2392C99.147 43.4163 99.9167 46.4042 98.7848 49.2111C97.653 52.0633 94.8914 53.6931 92.492 52.9688C90.9074 52.4255 90.2736 50.1166 91.0432 47.8982C91.7676 45.861 93.4427 44.5481 94.9367 44.8197L95.4347 45.5893Z" fill="#DBA000"/>
<path d="M166.965 77.0085C166.965 78.2308 165.969 79.2268 164.792 79.2268C163.57 79.2268 162.574 78.2308 162.574 77.0085C162.574 75.7861 163.57 74.7901 164.792 74.7901C165.969 74.8354 166.965 75.8314 166.965 77.0085ZM163.026 77.0537C163.026 78.0497 163.841 78.8646 164.792 78.8646C165.743 78.8646 166.558 78.0497 166.558 77.0537C166.558 76.0577 165.788 75.2428 164.792 75.2428C163.796 75.1976 163.026 76.0125 163.026 77.0537ZM165.879 78.3214H165.154L164.43 77.3254V78.3214H163.841V75.7861H164.656C165.29 75.7861 165.607 76.0577 165.607 76.5557C165.607 76.9179 165.426 77.1895 165.064 77.2801L165.879 78.3214ZM164.566 76.8726C164.883 76.8726 165.018 76.7368 165.018 76.5557C165.018 76.3294 164.883 76.2388 164.566 76.2388H164.43V76.9179H164.566V76.8726Z" fill="#DBA000"/>
</svg>
