<?xml version="1.0" encoding="utf-8"?><svg width="22" height="22" fill="none" xmlns="http://www.w3.org/2000/svg" viewBox="0 0 22 22"><path d="M.766 6.65a.766.766 0 00.766-.766V2.617L6.467 7.55a.764.764 0 001.084 0c.299-.3.299-.785 0-1.084L2.616 1.533h3.267a.766.766 0 000-1.532H.766A.766.766 0 000 .767v5.117c0 .423.343.766.766.766zM21.234 15.35a.766.766 0 00-.767.767v3.267l-5.086-5.087a.766.766 0 00-1.084 1.084l5.087 5.086h-3.267a.766.766 0 100 1.533h5.117a.766.766 0 00.766-.766v-5.117a.766.766 0 00-.766-.766zM6.62 14.297l-5.087 5.087v-3.267a.766.766 0 10-1.532 0v5.117c0 .423.342.766.766.766h5.116a.766.766 0 000-1.532H2.616l5.087-5.087a.766.766 0 10-1.084-1.084zM21.234 0h-5.117a.766.766 0 100 1.532h3.267L14.45 6.467a.766.766 0 101.084 1.083l4.934-4.934v3.267a.766.766 0 101.532 0V.766A.766.766 0 0021.234 0z" fill="#000"/></svg>