<?xml version="1.0" encoding="utf-8"?><svg width="12" height="12" fill="none" xmlns="http://www.w3.org/2000/svg" viewBox="0 0 12 12"><path d="M2.632 2.962c.335.827.76 1.607 1.319 2.307.074.093.167.176.266.244.144.098.28.064.338-.1a2.89 2.89 0 00.122-.705c.01-.474-.001-.784-.027-1.257-.016-.304-.124-.57-.57-.65-.138-.025-.15-.138-.062-.251.184-.236.44-.273.719-.288.45-.024.903-.005 1.355 0 .184.002.369.016.55.056.236.051.362.217.401.448.02.119.03.24.028.361-.012.517-.037 1.034-.042 1.551-.003.203.012.411.055.609.06.275.248.344.44.145a6.74 6.74 0 00.66-.826c.366-.525.64-1.101.875-1.696.121-.307.215-.373.545-.374.62-.001 1.24-.002 1.86 0 .11 0 .225.01.33.044.168.054.234.191.195.365-.092.41-.313.756-.55 1.09-.379.536-.777 1.059-1.165 1.588-.05.068-.093.14-.134.213-.145.262-.135.41.077.628.337.348.698.673 1.025 1.03.237.26.457.543.645.84.238.375.09.73-.354.792-.28.04-1.645 0-1.716 0a1.337 1.337 0 01-.948-.378c-.288-.278-.55-.582-.827-.872a2.31 2.31 0 00-.268-.244c-.227-.173-.449-.134-.555.131-.09.229-.168.829-.172.88-.019.268-.19.438-.49.455-.865.047-1.705-.05-2.487-.469-.663-.355-1.192-.856-1.65-1.442-.728-.93-1.304-1.95-1.829-3.003a55.168 55.168 0 01-.573-1.239c-.047-.179-.003-.35.148-.408.095-.037 1.848 0 1.877.001.28.015.471.133.589.424z" fill="#fff"/></svg>